<?xml version="1.0" standalone="no"?>
<!DOCTYPE svg PUBLIC "-//W3C//DTD SVG 20010904//EN"
 "http://www.w3.org/TR/2001/REC-SVG-20010904/DTD/svg10.dtd">
<svg version="1.0" xmlns="http://www.w3.org/2000/svg"
 width="376.000000pt" height="376.000000pt" viewBox="0 0 376.000000 376.000000"
 preserveAspectRatio="xMidYMid meet">
<metadata>
Created by potrace 1.14, written by Peter Selinger 2001-2017
</metadata>
<g transform="translate(0.000000,376.000000) scale(0.100000,-0.100000)"
fill="#000000" stroke="none">
<path d="M1273 3744 c-224 -58 -359 -271 -309 -488 24 -102 95 -177 199 -212
53 -18 200 -24 267 -12 211 38 347 194 351 400 2 96 -13 146 -60 206 -41 52
-112 93 -189 110 -62 14 -199 12 -259 -4z"/>
<path d="M2328 3513 c-3 -7 -40 -40 -162 -143 -17 -14 -48 -41 -70 -61 -23
-19 -99 -84 -171 -144 -71 -61 -141 -120 -155 -131 -14 -12 -77 -66 -140 -119
-63 -53 -139 -118 -169 -144 -30 -25 -67 -57 -84 -71 -131 -108 -265 -227
-264 -235 0 -8 119 -108 262 -220 22 -16 91 -72 154 -123 138 -111 158 -126
236 -189 33 -26 65 -52 71 -58 7 -5 34 -28 62 -49 43 -33 49 -43 42 -61 -5
-12 -11 -35 -14 -51 -2 -16 -7 -38 -10 -49 -2 -11 -12 -51 -21 -90 -20 -90
-41 -179 -60 -257 -8 -35 -17 -72 -19 -83 -8 -35 -78 -339 -97 -420 -5 -22
-12 -49 -14 -60 -4 -16 -34 -149 -50 -215 -39 -167 -58 -250 -61 -270 -3 -14
-10 -43 -16 -65 -5 -22 -12 -51 -15 -65 -2 -14 -10 -49 -18 -77 -7 -29 -11
-53 -9 -53 3 0 274 228 284 239 3 4 46 40 95 81 50 41 96 81 104 88 8 8 62 54
120 102 290 243 665 566 667 575 2 8 -118 107 -560 457 -131 105 -264 212
-278 226 -17 16 -14 32 47 297 57 243 85 368 100 438 2 10 7 27 10 37 3 10 7
27 9 37 2 10 18 79 36 153 17 74 33 143 35 153 2 10 6 26 9 35 3 9 7 28 10 42
4 24 68 297 102 440 20 81 24 110 13 110 -4 0 -9 -3 -11 -7z"/>
</g>
</svg>
